<?xml version="1.0" encoding="UTF-8"?>
<svg xmlns="http://www.w3.org/2000/svg" version="1.1" viewBox="0 0 3199.9 1138.4">
  <defs>
    <style>
      .cls-1 {
        fill: #f1f2f2;
      }
    </style>
  </defs>
  <!-- Generator: Adobe Illustrator 28.7.1, SVG Export Plug-In . SVG Version: 1.2.0 Build 142)  -->
  <g>
    <g id="Layer_1">
      <g>
        <g>
          <path class="cls-1" d="M949.9,314.4c-2.9,12.2-4.7,24.7-5.3,37.4-.6,12.7-.8,25.4-.8,38v44.8l75.1-82.5c8.2-9.5,14.7-17.7,19.7-24.6,5-6.9,7.8-11.3,8.5-13.1h54.7c-9.7,8.4-18.6,16.3-26.5,23.6-7.9,7.4-15.6,14.9-23.1,22.6l-67.9,74.4,88,96.1c7.5,7.7,15.3,15.3,23.4,22.8,8.2,7.5,17.1,15.4,26.8,23.8h-54.7c-.7-1.8-3.2-5.8-7.5-12.1-4.3-6.2-10.1-13.4-17.3-21.6l-99.2-108.4v66.6c0,12.7.3,25.4.8,38,.6,12.7,2.3,25.1,5.3,37.4h-46.2c2.9-12.2,4.7-24.7,5.3-37.4.6-12.7.8-25.4.8-38v-112.4c0-12.7-.3-25.4-.8-38-.6-12.7-2.3-25.1-5.3-37.4h46.2Z"/>
          <path class="cls-1" d="M1152,310l28.2,27.9-28.2,28.2-27.9-28.2,27.9-27.9ZM1139.4,502.3v-36.7c0-12.2-.5-22.2-1.4-30.1-.9-7.8-2.3-14.4-4.1-19.9-1.8-5.4-4.3-10.6-7.5-15.6v-2l45.2-9.5v113.8c0,12.7.3,25.4.8,38,.6,12.7,2.3,25.1,5.3,37.4h-44.5c2.9-12.2,4.7-24.7,5.3-37.4.6-12.7.8-25.4.8-38Z"/>
          <path class="cls-1" d="M1341.9,476.1c0-7.2-.3-14.5-1-21.9-.7-7.4-2.2-14.1-4.4-20.2-2.3-6.1-5.9-11.1-10.9-14.9-5-3.8-11.8-5.8-20.4-5.8-13.4,0-23.6,3.2-30.7,9.5-7.1,6.3-12.1,14.4-14.9,24.1-2.8,9.7-4.6,19.9-5.3,30.6v24.8c0,12.7.3,25.4.8,38,.6,12.7,2.3,25.1,5.3,37.4h-44.5c2.9-12.2,4.7-24.7,5.3-37.4.6-12.7.8-25.4.8-38v-36.7c0-12.2-.5-22.2-1.4-30.1-.9-7.8-2.3-14.4-4.1-19.9-1.8-5.4-4.3-10.6-7.5-15.6v-2l45.2-9.5v27.5h2.4c3.4-5.7,7.1-10.7,11-15.1,4-4.4,9.2-8,15.8-10.7,6.6-2.7,15.4-4.1,26.5-4.1s24.6,2.5,33.1,7.6c8.5,5.1,14.9,11.9,19.4,20.6,4.4,8.6,7.5,18.2,9.2,28.9,1.7,10.6,2.5,21.6,2.5,32.9v26.2c0,12.7.3,25.4.8,38,.6,12.7,2.3,25.1,5.3,37.4h-44.5c2.9-12.2,4.7-24.7,5.3-37.4.6-12.7.8-25.4.8-38v-26.2Z"/>
          <path class="cls-1" d="M1579,502.6c0,12.2.4,22.2,1.2,30.1.8,7.8,2.1,14.4,4.1,19.7,1.9,5.3,4.4,10.6,7.3,15.8v2l-45.2,9.5.3-32.3h-1c-5.4,11.1-13.3,19.7-23.6,25.8-10.3,6.1-21.8,9.2-34.5,9.2s-29.4-4.4-42.1-13.1c-12.7-8.7-22.8-20.5-30.2-35.3-7.5-14.8-11.2-31.3-11.2-49.4s3.8-35.3,11.4-50.1c7.6-14.8,17.9-26.6,30.9-35.3,13-8.7,27.6-13.1,43.6-13.1s22.6,2.5,31.9,7.6c9.3,5.1,16.8,12.5,22.4,22.2h2.4v-26.2c0-12.2-.5-22.2-1.4-30.1-.9-7.8-2.3-14.4-4.1-19.9-1.8-5.4-4.3-10.6-7.5-15.6v-2l45.2-9.5v189.9ZM1546.7,473.1c-.9-10.2-3.6-19.8-8-28.9-4.4-9.1-10.6-16.5-18.5-22.2-7.9-5.8-17.9-8.7-29.9-8.7s-29.5,6.3-38.9,18.9c-9.4,12.6-14.1,30.1-14.1,52.5s5.2,38.7,15.6,51.5c10.4,12.8,24.3,19.2,41.8,19.2s26.4-4.4,35.8-13.2c9.4-8.8,14.8-20.4,16.1-34.6v-34.3Z"/>
          <path class="cls-1" d="M1738,432.3c-3.6-6.3-7.9-10.5-12.9-12.6-5-2-10.8-3.1-17.3-3.1-10.2,0-18.2,3.4-24.1,10.2-5.9,6.8-10.2,15.8-12.9,27-2.7,11.2-4.4,23.6-5.1,37.2v11.2c0,12.7.3,25.4.8,38,.6,12.7,2.3,25.1,5.3,37.4h-44.5c2.9-12.2,4.7-24.7,5.3-37.4.6-12.7.8-25.4.8-38v-36.7c0-12.2-.5-22.2-1.4-30.1-.9-7.8-2.3-14.4-4.1-19.9-1.8-5.4-4.3-10.6-7.5-15.6v-2l45.2-9.5v37.7h2.4c2.9-11.8,8.8-21.4,17.5-28.9,8.7-7.5,19.5-11.2,32.4-11.2s14.2,1.9,22.1,5.8v40.4h-2Z"/>
          <path class="cls-1" d="M1840.2,582.4c-12.7,0-24.6-2.5-35.8-7.5-11.2-5-21.2-11.9-29.9-20.7-8.7-8.8-15.5-19.2-20.4-31.1-4.9-11.9-7.3-24.7-7.3-38.6s2.4-26.7,7.3-38.7c4.9-12,11.6-22.5,20.2-31.4,8.6-8.9,18.5-15.9,29.7-20.9,11.2-5,23.2-7.5,35.8-7.5s31.3,4.4,42.8,13.1c11.5,8.7,20.3,20.5,26.3,35.3,6,14.8,9,31.5,9,50.1h-137.9c0,12.9,3,24.7,9,35.5,6,10.8,14.1,19.3,24.5,25.6,10.3,6.3,21.8,9.5,34.5,9.5s23.2-2.3,31.4-6.8c8.3-4.5,14.9-10.5,19.9-18l12.2,10.5c-2.5,5-6.5,10.7-12.1,17.2-5.6,6.5-13.1,12.1-22.8,17-9.6,4.9-21.8,7.3-36.5,7.3ZM1782.8,459.1h99.9c-2.5-14-7.5-25.2-14.9-33.5-7.5-8.3-17.9-12.4-31.3-12.4s-26.3,4.1-35.3,12.4c-9.1,8.3-15.2,19.4-18.3,33.5Z"/>
          <path class="cls-1" d="M2111.6,502.6c0,12.2.4,22.2,1.2,30.1.8,7.8,2.1,14.4,4.1,19.7,1.9,5.3,4.4,10.6,7.3,15.8v2l-45.2,9.5.3-32.3h-1c-5.4,11.1-13.3,19.7-23.6,25.8-10.3,6.1-21.8,9.2-34.5,9.2s-29.4-4.4-42.1-13.1c-12.7-8.7-22.8-20.5-30.2-35.3-7.5-14.8-11.2-31.3-11.2-49.4s3.8-35.3,11.4-50.1c7.6-14.8,17.9-26.6,30.9-35.3,13-8.7,27.6-13.1,43.6-13.1s22.6,2.5,31.9,7.6c9.3,5.1,16.8,12.5,22.4,22.2h2.4v-26.2c0-12.2-.5-22.2-1.4-30.1-.9-7.8-2.3-14.4-4.1-19.9-1.8-5.4-4.3-10.6-7.5-15.6v-2l45.2-9.5v189.9ZM2079.3,473.1c-.9-10.2-3.6-19.8-8-28.9-4.4-9.1-10.6-16.5-18.5-22.2-7.9-5.8-17.9-8.7-29.9-8.7s-29.5,6.3-38.9,18.9c-9.4,12.6-14.1,30.1-14.1,52.5s5.2,38.7,15.6,51.5c10.4,12.8,24.3,19.2,41.8,19.2s26.4-4.4,35.8-13.2c9.4-8.8,14.8-20.4,16.1-34.6v-34.3Z"/>
          <path class="cls-1" d="M2399,341.3l-18.7,36.7h-1c-1.6-6.3-4.7-12.7-9.3-19-4.6-6.3-10.8-11.6-18.3-15.8-7.6-4.2-16.9-6.3-28-6.3s-26,3.6-35.2,10.9c-9.2,7.2-13.8,16.9-13.8,28.9s3.1,16.9,9.2,22.9c6.1,6,14,11.3,23.8,16,9.7,4.6,20,9.6,30.9,14.8,11.5,5.4,22.5,11.7,32.9,18.9,10.4,7.1,18.9,15.6,25.5,25.5,6.6,9.9,9.9,21.7,9.9,35.5s-3.5,26.8-10.4,37.7c-6.9,10.9-16.8,19.4-29.6,25.5-12.8,6.1-28.1,9.2-46,9.2s-26.3-1.6-36.7-4.8c-10.4-3.2-19.2-7-26.3-11.4-7.1-4.4-12.7-8.7-16.8-12.7s-6.8-7-8.2-8.8l22.8-37h1c2.9,7.5,7.2,14.8,12.7,22.1,5.5,7.2,12.6,13.3,21.1,18.2,8.5,4.9,18.6,7.3,30.4,7.3s26.8-4.2,36.2-12.7c9.4-8.5,14.1-19.3,14.1-32.4s-4.5-24.1-13.6-32.1c-9.1-8-20.2-15.2-33.3-21.6-9.5-4.8-19.2-9.5-29-14.1-9.9-4.6-19-10-27.3-16-8.4-6-15.2-13.1-20.4-21.2-5.2-8.2-7.9-18-8.2-29.6-.2-12.7,3.2-23.9,10.2-33.8,7-9.9,17-17.7,29.9-23.4s27.9-8.7,44.8-8.7,23.9,1.4,33.1,4.2c9.2,2.8,16.7,6.2,22.6,10.2,5.9,4,10.4,7.6,13.4,10.9,3.1,3.3,4.9,5.4,5.6,6.3Z"/>
          <path class="cls-1" d="M2532.8,582.4c-9.5,0-17.7-1.4-24.6-4.1-6.9-2.7-12.6-6.1-17.2-10-4.5-4-8.1-7.9-10.7-11.7-2.6-3.8-4.5-6.9-5.6-9.2h-.7v43.1c0,12.7.3,25.4.8,38,.6,12.7,2.3,25.1,5.3,37.4h-44.5c2.9-12.2,4.7-24.7,5.3-37.4.6-12.7.8-25.4.8-38v-125.3c0-12.2-.5-22.2-1.4-30.1-.9-7.8-2.3-14.4-4.1-19.9-1.8-5.4-4.3-10.6-7.5-15.6v-2l45.2-9.5-.3,27.9h2.4c11.8-19.9,29.9-29.9,54.3-29.9s31.3,4.2,44.2,12.7,23.1,20.2,30.6,35c7.5,14.8,11.2,31.8,11.2,50.8s-3.6,35.6-10.9,50.3c-7.2,14.7-17.2,26.3-29.7,34.8s-26.9,12.7-43,12.7ZM2474,500.2c0,16.5,4.6,29.8,13.9,39.9,9.3,10.1,21.9,15.1,37.7,15.1s31.6-6.3,42-19c10.3-12.7,15.5-29.9,15.5-51.6s-4.8-39.1-14.4-52c-9.6-12.9-22.5-19.4-38.6-19.4s-22.1,3.2-30.2,9.5c-8.2,6.3-14.3,14.4-18.5,24.1-4.2,9.7-6.6,19.9-7.3,30.6v22.8Z"/>
          <path class="cls-1" d="M2668,310l28.2,27.9-28.2,28.2-27.9-28.2,27.9-27.9ZM2655.4,502.3v-36.7c0-12.2-.5-22.2-1.4-30.1-.9-7.8-2.3-14.4-4.1-19.9-1.8-5.4-4.3-10.6-7.5-15.6v-2l45.2-9.5v113.8c0,12.7.3,25.4.8,38,.6,12.7,2.3,25.1,5.3,37.4h-44.5c2.9-12.2,4.7-24.7,5.3-37.4.6-12.7.8-25.4.8-38Z"/>
          <path class="cls-1" d="M2842.6,432.3c-3.6-6.3-7.9-10.5-12.9-12.6-5-2-10.8-3.1-17.3-3.1-10.2,0-18.2,3.4-24.1,10.2-5.9,6.8-10.2,15.8-12.9,27-2.7,11.2-4.4,23.6-5.1,37.2v11.2c0,12.7.3,25.4.8,38,.6,12.7,2.3,25.1,5.3,37.4h-44.5c2.9-12.2,4.7-24.7,5.3-37.4.6-12.7.8-25.4.8-38v-36.7c0-12.2-.5-22.2-1.4-30.1-.9-7.8-2.3-14.4-4.1-19.9-1.8-5.4-4.3-10.6-7.5-15.6v-2l45.2-9.5v37.7h2.4c2.9-11.8,8.8-21.4,17.5-28.9,8.7-7.5,19.5-11.2,32.4-11.2s14.2,1.9,22.1,5.8v40.4h-2Z"/>
          <path class="cls-1" d="M2894.6,310l28.2,27.9-28.2,28.2-27.9-28.2,27.9-27.9ZM2882,502.3v-36.7c0-12.2-.5-22.2-1.4-30.1-.9-7.8-2.3-14.4-4.1-19.9-1.8-5.4-4.3-10.6-7.5-15.6v-2l45.2-9.5v113.8c0,12.7.3,25.4.8,38,.6,12.7,2.3,25.1,5.3,37.4h-44.5c2.9-12.2,4.7-24.7,5.3-37.4.6-12.7.8-25.4.8-38Z"/>
          <path class="cls-1" d="M3020.9,582.4c-31.9,0-47.9-20.4-47.9-61.1v-107c-6.3.7-11.7,1.3-16,1.9-4.3.6-8.4,1.2-12.2,1.9v-3.7l57.1-62.8h3.4v39.4h47.9l3.4,27.2c-4.5-.9-9-1.6-13.4-2-4.4-.5-9.6-.8-15.5-1.2-5.9-.3-13.4-.5-22.4-.5v105.6c0,12.7,1.8,21.5,5.3,26.5,3.5,5,9.7,7.5,18.5,7.5s10.3-1.1,13.9-3.4c3.6-2.3,6.9-5.5,9.9-9.9l9.5,12.9c-3.4,8.4-8.5,15.3-15.3,20.7-6.8,5.4-15.5,8.2-26.2,8.2Z"/>
          <path class="cls-1" d="M3190.8,405.5l-4.1,34.3h-1.4c-3.6-8.4-9.2-14.9-16.8-19.5-7.6-4.6-15.7-7-24.3-7s-17.6,1.9-23.6,5.6c-6,3.7-9,9.6-9,17.5s3.6,15.2,10.7,19.7c7.1,4.5,15.3,8.7,24.6,12.6,8.2,3.4,16.3,7.3,24.5,11.7s14.9,10.3,20.4,17.7c5.4,7.4,8.2,17.3,8.2,29.7s-2.9,21.7-8.7,29.9-13.5,14.3-23.1,18.5c-9.6,4.2-20.2,6.3-31.8,6.3s-18.5-1.6-26.2-4.9c-7.7-3.3-14.1-7.2-19.2-11.7-5.1-4.5-8.4-8.6-10-12.2l4.8-37.7h1.4c.5,2.7,1.9,6.3,4.2,10.7s5.7,8.8,10,13.1c4.3,4.3,9.4,8,15.3,11,5.9,3.1,12.5,4.6,19.7,4.6s18.4-2.5,24.6-7.5c6.2-5,9.3-12,9.3-21.1s-3.6-15.3-10.7-20c-7.1-4.8-15.5-9.2-25-13.2-8.2-3.6-16.3-7.5-24.3-11.7-8-4.2-14.7-9.7-20-16.6-5.3-6.9-8-15.9-8-27s2.8-21.5,8.3-29c5.5-7.6,13-13.3,22.4-17.2,9.4-3.8,19.9-5.8,31.4-5.8s22.8,2.3,30.4,7c7.6,4.6,12.8,8.8,15.8,12.4Z"/>
          <path class="cls-1" d="M885.8,781.8c0-9.1,2.6-16.7,7.9-22.6,5.3-5.9,12.8-10.1,22.4-12.4,9.7-2.4,21.1-2.7,34.3-1-.8-9.7-2.9-16.7-6.5-21.1-3.5-4.4-8.8-6.6-15.7-6.6s-12.1,1.5-17.8,4.4c-5.7,2.9-10.7,6.8-14.9,11.7h-1.4l-.6-20.4c10.6-7.6,23-11.4,37.4-11.4s23,4,29,12c6,8,9.1,21,9.2,38.9v16.3c0,6.4.2,11.8.7,16.3.5,4.4,1.2,8.3,2.4,11.7,1.1,3.3,2.6,6.6,4.4,9.9v1.2l-26.2,5.5v-16.5h-.8c-2.5,5.7-6.2,10.2-11.2,13.2-5,3.1-10.7,4.6-17.2,4.6s-12.7-1.5-18-4.4c-5.4-2.9-9.6-7-12.7-12-3.1-5.1-4.7-10.8-4.7-17.2ZM905,781.8c0,5.7,1.8,10.2,5.3,13.3,3.5,3.1,8.5,4.7,14.9,4.7s8.7-1,12.4-3c3.7-2,6.8-4.8,9.1-8.2,2.4-3.5,3.7-7.3,3.9-11.5v-19c-13.8-1.6-24.9-.3-33.2,3.8-8.3,4.1-12.4,10.7-12.4,19.9Z"/>
          <path class="cls-1" d="M1058.2,728.9c-2.1-3.7-4.6-6.1-7.4-7.2-2.9-1.2-6.2-1.8-10-1.8-5.9,0-10.5,2-13.9,5.9-3.4,3.9-5.9,9.1-7.4,15.6-1.6,6.5-2.5,13.6-2.9,21.4v6.5c0,7.3.2,14.6.5,21.9.3,7.3,1.3,14.5,3,21.5h-25.7c1.7-7.1,2.7-14.2,3-21.5.3-7.3.5-14.6.5-21.9v-21.2c0-7.1-.3-12.8-.8-17.3-.5-4.5-1.3-8.3-2.4-11.5-1-3.1-2.5-6.1-4.3-9v-1.2l26.1-5.5v21.7h1.4c1.7-6.8,5.1-12.3,10.1-16.6,5-4.3,11.3-6.5,18.7-6.5s8.2,1.1,12.7,3.3v23.3h-1.2Z"/>
          <path class="cls-1" d="M1112,815.5c-18.4,0-27.6-11.8-27.6-35.3v-61.7c-3.7.4-6.7.8-9.2,1.1-2.5.3-4.8.7-7.1,1.1v-2.2l32.9-36.2h2v22.7h27.6l2,15.7c-2.6-.5-5.2-.9-7.7-1.2-2.5-.3-5.5-.5-8.9-.7-3.4-.2-7.7-.3-12.9-.3v60.9c0,7.3,1,12.4,3,15.3,2,2.9,5.6,4.3,10.7,4.3s5.9-.7,8-2c2.1-1.3,4-3.2,5.7-5.7l5.5,7.4c-2,4.8-4.9,8.8-8.8,11.9s-8.9,4.7-15.1,4.7Z"/>
          <path class="cls-1" d="M1210,713.4l-2.4,19.8h-.8c-2.1-4.8-5.3-8.6-9.7-11.3-4.4-2.7-9-4-14-4s-10.2,1.1-13.6,3.2c-3.5,2.2-5.2,5.5-5.2,10.1s2.1,8.8,6.2,11.4c4.1,2.6,8.8,5,14.2,7.2,4.7,2,9.4,4.2,14.1,6.8,4.7,2.5,8.6,5.9,11.8,10.2,3.1,4.2,4.7,10,4.7,17.1s-1.7,12.5-5,17.2c-3.3,4.7-7.8,8.3-13.3,10.7-5.6,2.4-11.7,3.6-18.3,3.6s-10.6-.9-15.1-2.8c-4.4-1.9-8.1-4.1-11.1-6.8-2.9-2.6-4.9-5-5.8-7.1l2.7-21.7h.8c.3,1.6,1.1,3.6,2.4,6.2,1.4,2.5,3.3,5.1,5.8,7.5,2.5,2.5,5.4,4.6,8.8,6.4,3.4,1.8,7.2,2.6,11.4,2.6s10.6-1.4,14.2-4.3c3.6-2.9,5.4-6.9,5.4-12.1s-2.1-8.8-6.2-11.6-8.9-5.3-14.4-7.6c-4.7-2.1-9.4-4.3-14-6.8-4.6-2.4-8.5-5.6-11.6-9.6-3.1-4-4.6-9.2-4.6-15.6s1.6-12.4,4.8-16.7c3.2-4.4,7.5-7.7,12.9-9.9,5.4-2.2,11.5-3.3,18.1-3.3s13.2,1.3,17.5,4c4.4,2.7,7.4,5.1,9.1,7.1Z"/>
          <path class="cls-1" d="M1334.9,815.5c-5.5,0-10.2-.8-14.2-2.4-4-1.6-7.3-3.5-9.9-5.8-2.6-2.3-4.7-4.5-6.2-6.8-1.5-2.2-2.6-4-3.2-5.3h-.4v24.9c0,7.3.2,14.6.5,21.9.3,7.3,1.3,14.5,3,21.5h-25.7c1.7-7.1,2.7-14.2,3-21.5.3-7.3.5-14.6.5-21.9v-72.3c0-7.1-.3-12.8-.8-17.3-.5-4.5-1.3-8.3-2.4-11.5-1-3.1-2.5-6.1-4.3-9v-1.2l26.1-5.5-.2,16.1h1.4c6.8-11.5,17.2-17.2,31.3-17.2s18,2.4,25.5,7.3c7.4,4.9,13.3,11.6,17.6,20.2,4.3,8.6,6.5,18.3,6.5,29.3s-2.1,20.5-6.3,29c-4.2,8.5-9.9,15.2-17.1,20.1-7.2,4.9-15.5,7.3-24.8,7.3ZM1301,768.1c0,9.5,2.7,17.2,8,23,5.4,5.8,12.6,8.7,21.7,8.7s18.2-3.7,24.2-11c5.9-7.3,8.9-17.2,8.9-29.8s-2.8-22.5-8.3-30c-5.6-7.4-13-11.2-22.2-11.2s-12.7,1.8-17.4,5.5c-4.7,3.7-8.3,8.3-10.7,13.9-2.4,5.6-3.8,11.5-4.2,17.6v13.1Z"/>
          <path class="cls-1" d="M1464.6,728.9c-2.1-3.7-4.6-6.1-7.4-7.2-2.9-1.2-6.2-1.8-10-1.8-5.9,0-10.5,2-13.9,5.9-3.4,3.9-5.9,9.1-7.4,15.6-1.6,6.5-2.5,13.6-2.9,21.4v6.5c0,7.3.2,14.6.5,21.9.3,7.3,1.3,14.5,3,21.5h-25.7c1.7-7.1,2.7-14.2,3-21.5.3-7.3.5-14.6.5-21.9v-21.2c0-7.1-.3-12.8-.8-17.3-.5-4.5-1.3-8.3-2.4-11.5-1-3.1-2.5-6.1-4.3-9v-1.2l26.1-5.5v21.7h1.4c1.7-6.8,5.1-12.3,10.1-16.6,5-4.3,11.3-6.5,18.7-6.5s8.2,1.1,12.7,3.3v23.3h-1.2Z"/>
          <path class="cls-1" d="M1522.6,815.5c-10.3,0-19.6-2.5-27.7-7.4-8.2-5-14.6-11.7-19.2-20.3-4.6-8.6-7-18.1-7-28.7s2.3-20.3,7-28.9c4.6-8.6,11-15.3,19.2-20.4,8.2-5,17.4-7.5,27.7-7.5s19.7,2.5,27.8,7.5c8.1,5,14.5,11.8,19.2,20.4,4.7,8.6,7.1,18.2,7.1,28.9s-2.3,20.1-7.1,28.7c-4.7,8.6-11.1,15.3-19.2,20.3-8.1,5-17.4,7.4-27.8,7.4ZM1522.4,799.8c6.8,0,12.8-1.7,18-5.2,5.2-3.5,9.4-8.3,12.4-14.4,3.1-6.1,4.6-13.2,4.6-21.2s-1.5-15.2-4.6-21.4c-3.1-6.2-7.2-11-12.4-14.5-5.2-3.5-11.2-5.2-18-5.2s-12.6,1.8-17.8,5.3c-5.2,3.5-9.3,8.4-12.2,14.5-2.9,6.1-4.4,13.3-4.4,21.3s1.5,15,4.4,21.2c2.9,6.1,7,10.9,12.2,14.4,5.2,3.5,11.2,5.2,17.8,5.2Z"/>
          <path class="cls-1" d="M1637,791.6c-9.3,0-17.5-2.3-24.7-6.9-.9,1.7-1.6,3.8-2,6.2-.4,2.4.4,4.3,2.4,5.8,2.2,1.7,5.9,2.6,11.2,2.8,5.2.2,12.1.6,20.8,1.3,5,.3,10.3.8,16,1.6,5.7.8,11,2.2,16.1,4.1,5,2,9.1,4.8,12.2,8.5,3.1,3.7,4.7,8.7,4.7,15s-1.7,12.5-5.1,17.2c-3.4,4.7-7.8,8.5-13.3,11.4-5.5,2.9-11.5,5-18.1,6.3-6.6,1.3-13.1,2-19.5,2-10.6,0-19.8-1.4-27.6-4.2-7.8-2.8-13.9-6.7-18.1-11.8-4.2-5-6.4-10.8-6.4-17.3s1.6-10.6,4.9-14.5c3.3-3.9,6.6-7,10-9.2-2.1-1.3-3.8-3-5-5-1.2-2-1.9-4.5-1.9-7.5,0-4.7,1.3-8.6,4-11.8,2.7-3.1,5.1-5.4,7.1-6.9-3.8-3.8-6.8-8.4-8.9-13.7-2.2-5.4-3.2-11.3-3.2-17.8s2-17,6-23.7c4-6.7,9.4-11.8,16.2-15.6,6.8-3.7,14.2-5.6,22.3-5.6s10.4,1,15.3,2.9c8,0,14.3,0,19-.2,4.7-.1,8.6-.4,11.8-.7,3.1-.3,6.2-.7,9.2-1.3l-2,15.7h-18.8c3,3.7,5.5,7.9,7.3,12.6,1.9,4.8,2.8,10,2.8,15.8s-1.3,12.9-3.9,18.4c-2.6,5.5-6.1,10.2-10.4,14-4.3,3.9-9.1,6.8-14.4,8.9-5.3,2.1-10.6,3.1-16,3.1ZM1604.6,832.5c0,6.3,3,10.9,9,14,6,3.1,13.8,4.6,23.3,4.6s12.6-.8,18.3-2.4c5.7-1.6,10.3-4,13.8-7.1,3.5-3.1,5.3-7.1,5.3-11.8s-1.5-7.6-4.6-9.5c-3.1-1.9-7-3.1-11.7-3.5-4.7-.5-9.5-.8-14.5-1.1-5.1-.3-10.2-.5-15.3-.7-5.1-.2-9.8-.6-14.1-1.1-2.9,2.2-5.2,5.1-7,8.5-1.8,3.5-2.6,6.8-2.6,10.1ZM1636.8,775.9c5.5,0,10.1-1.3,13.9-4,3.8-2.7,6.7-6.2,8.7-10.7,2-4.4,3-9.1,3-14.1s-1-9.8-3-14.2c-2-4.4-4.9-7.9-8.7-10.7-3.8-2.7-8.4-4.1-13.9-4.1s-9.9,1.4-13.7,4.1c-3.8,2.7-6.6,6.3-8.5,10.8-1.9,4.4-2.8,9.1-2.8,14.1s.9,9.7,2.8,14.1c1.9,4.4,4.7,8,8.5,10.7,3.8,2.7,8.4,4,13.7,4Z"/>
          <path class="cls-1" d="M1771.1,728.9c-2.1-3.7-4.6-6.1-7.4-7.2-2.9-1.2-6.2-1.8-10-1.8-5.9,0-10.5,2-13.9,5.9-3.4,3.9-5.9,9.1-7.4,15.6-1.6,6.5-2.5,13.6-2.9,21.4v6.5c0,7.3.2,14.6.5,21.9.3,7.3,1.3,14.5,3,21.5h-25.7c1.7-7.1,2.7-14.2,3-21.5.3-7.3.5-14.6.5-21.9v-21.2c0-7.1-.3-12.8-.8-17.3-.5-4.5-1.3-8.3-2.4-11.5-1-3.1-2.5-6.1-4.3-9v-1.2l26.1-5.5v21.7h1.4c1.7-6.8,5.1-12.3,10.1-16.6,5-4.3,11.3-6.5,18.7-6.5s8.2,1.1,12.7,3.3v23.3h-1.2Z"/>
          <path class="cls-1" d="M1779.2,781.8c0-9.1,2.6-16.7,7.9-22.6,5.3-5.9,12.8-10.1,22.4-12.4,9.7-2.4,21.1-2.7,34.3-1-.8-9.7-2.9-16.7-6.5-21.1-3.5-4.4-8.8-6.6-15.7-6.6s-12.1,1.5-17.8,4.4c-5.7,2.9-10.7,6.8-14.9,11.7h-1.4l-.6-20.4c10.6-7.6,23-11.4,37.4-11.4s23,4,29,12c6,8,9.1,21,9.2,38.9v16.3c0,6.4.2,11.8.7,16.3.5,4.4,1.2,8.3,2.3,11.7,1.1,3.3,2.6,6.6,4.4,9.9v1.2l-26.2,5.5v-16.5h-.8c-2.5,5.7-6.2,10.2-11.2,13.2-5,3.1-10.7,4.6-17.2,4.6s-12.7-1.5-18-4.4c-5.4-2.9-9.6-7-12.7-12s-4.7-10.8-4.7-17.2ZM1798.4,781.8c0,5.7,1.8,10.2,5.3,13.3,3.5,3.1,8.5,4.7,14.9,4.7s8.7-1,12.4-3c3.7-2,6.8-4.8,9.1-8.2,2.4-3.5,3.7-7.3,3.9-11.5v-19c-13.8-1.6-24.9-.3-33.2,3.8-8.3,4.1-12.4,10.7-12.4,19.9Z"/>
          <path class="cls-1" d="M1956.4,754.2c0-3.9,0-8-.3-12.2-.2-4.2-.9-8.2-2-11.8-1.1-3.6-3-6.5-5.6-8.8-2.6-2.3-6.4-3.4-11.4-3.4-7.2,0-12.7,1.8-16.6,5.5-3.9,3.7-6.5,8.3-8,13.9-1.5,5.6-2.4,11.5-2.8,17.6v14.3c0,7.3.2,14.6.5,21.9.3,7.3,1.3,14.5,3,21.5h-25.7c1.7-7.1,2.7-14.2,3-21.5.3-7.3.5-14.6.5-21.9v-21.2c0-7.1-.3-12.8-.8-17.3-.5-4.5-1.3-8.3-2.4-11.5-1-3.1-2.5-6.1-4.3-9v-1.2l26.1-5.5v15.9h1.4c2-3.3,4-6.2,6.2-8.7,2.2-2.5,5-4.6,8.5-6.2,3.5-1.6,8.2-2.4,14.1-2.4,8.7,0,15.5,1.9,20.4,5.8,4.8,3.9,8.4,8.8,10.6,14.8h1.2c2-3.3,4.3-6.5,7.1-9.6,2.8-3.1,6.3-5.7,10.5-7.8,4.2-2.1,9.2-3.1,15.1-3.1s14.3,1.5,19,4.5c4.7,3,8.2,7,10.6,12,2.4,5,3.9,10.6,4.6,16.7.7,6.1,1.1,12.3,1.1,18.6v15.1c0,7.3.2,14.6.5,21.9.3,7.3,1.3,14.5,3,21.5h-25.7c1.7-7.1,2.7-14.2,3-21.5.3-7.3.5-14.6.5-21.9v-15.1c0-3.9,0-8-.2-12.2-.1-4.2-.7-8.2-1.8-11.8-1-3.6-2.9-6.5-5.6-8.8-2.7-2.3-6.6-3.4-11.7-3.4-7.4,0-13,1.6-16.7,4.9-3.7,3.3-6.3,7.5-7.7,12.6-1.4,5.2-2.4,10.6-2.7,16.4v17.4c0,7.3.2,14.6.5,21.9.3,7.3,1.3,14.5,3,21.5h-25.7c1.7-7.1,2.7-14.2,3-21.5.3-7.3.5-14.6.5-21.9v-15.1Z"/>
        </g>
        <path class="cls-1" d="M319.5,733.1l19.8-21.1-10.5-9.9c-16.1-15.1-24.9-34.7-24.9-55,0-37.6,24-70.4,59.5-87.9v227.2c-90.9-6.4-162.6-72.2-162.6-152.2s84.8-172.1,162.6-232.3v125.8c-52,20.1-88.4,66-88.4,119.4s12.1,55.4,34,76.1l10.5,9.9ZM679.3,354.3L386.4,4c-2.1-2.5-5.2-4-8.5-4s-6.4,1.5-8.5,4L76.6,354.3C16.3,426.5-9.8,515.1,3.3,603.8c13.5,91.5,66.7,172,150,226.7,3.2,2.1,6.4,4.1,9.6,6.1l200.5,124v-145.1c-106.9-6.6-191.5-85.3-191.5-181.2s100.7-198.6,181.5-261.1c3.4-2.6,6.7-5.2,10-7.8v-87.1c0-29.5,11.3-55.1,31.1-70.3,15-11.5,33.3-15.6,50.2-11.1,13.2,3.5,24.4,12.4,31.4,25.1,9.2,16.5,10.7,38,4.3,59-10.6,34.5-45.4,65-88.1,98.6v140.1c9.6-1.8,19.6-2.7,29.7-2.7,82.5,0,147.1,62.8,147.1,143s-73.5,150.1-176.8,155.5v145.2l200.8-124.1c3.2-2,6.4-4,9.6-6.1,83.2-54.7,136.5-135.2,150-226.7,13.1-88.7-13-177.3-73.3-249.5ZM450.8,236c-2.2-4-6.4-9.3-13.5-11.2-2.1-.6-4.3-.8-6.4-.8-6.3,0-12.8,2.4-18.7,6.9-12.6,9.7-19.9,27-19.9,47.4v64.2c29.8-24.4,53.6-47.8,60.5-70,4.2-13.5,3.5-26.9-1.9-36.5ZM422,545.9c-10.3,0-20.2,1.1-29.7,3.3v237.4c86.5-5.2,147.9-56.8,147.9-126.6s-51.9-114.1-118.2-114.1ZM363.4,1059.7c0,27.5-26.6,49.8-59.2,49.8s-59.2-19.6-59.2-44.7,10.7-24.1,25.3-24.1,17.8,5.8,19.8,14.5h0c1.8,7.8,9.6,12.6,17.3,10.8,7.8-1.8,12.6-9.6,10.8-17.3h0c-5-21.7-24.8-36.9-48-36.9s-54.2,23.3-54.2,53,38.7,73.6,88.1,73.6,88.1-35.3,88.1-78.7v-98.9s-28.9,0-28.9,0v98.9Z"/>
      </g>
    </g>
  </g>
</svg>